# xmcd
# Track frame offsets:
# 150
# 10690
# 21305
# 33137
# 45565
# 55990
# 68117
# 81035
# 93522
# 104577
# 118805
# 128307
# 141722
# 155075
# 168117
#
# Disc length: 2422 seconds
# Revision: 0
# Processed by: cddbd v1.4PL0 Copyright (c) Steve Scherf et al.
# Submitted via: VisiTrax 2.9.5.181 - For more info visit www.synapsa.com
#
DISCID=c309740f
DTITLE=Boxcar Willie - 35 Tear Jerkin' Heart Breakin Songs - Disc 1
DYEAR=1993
DGENRE=Country
TTITLE0=Rockin' bones
TTITLE1=Sallt let your bangs hang down
TTITLE2=Train of love
TTITLE3=Mabeline
TTITLE4=That's all right
TTITLE5=Sixteen chickens and a tambourine
TTITLE6=Mystery train
TTITLE7=Pipeliner blues
TTITLE8=No help wanted
TTITLE9=Haunted house
TTITLE10=Hank you're like your daddy
TTITLE11=Caribbean
TTITLE12=Boney Maroney
TTITLE13=Memphis
TTITLE14=Achy breaky heart
EXTD=
EXTT0=
EXTT1=
EXTT2=
EXTT3=
EXTT4=
EXTT5=
EXTT6=
EXTT7=
EXTT8=
EXTT9=
EXTT10=
EXTT11=
EXTT12=
EXTT13=
EXTT14=
PLAYORDER=
